<?xml version="1.0" encoding="UTF-8" standalone="no"?>
<!DOCTYPE svg PUBLIC "-//W3C//DTD SVG 1.1//EN" "http://www.w3.org/Graphics/SVG/1.1/DTD/svg11.dtd">
<svg width="180" height="44" viewBox="0 0 240 59" version="1.1" xmlns="http://www.w3.org/2000/svg" xmlns:xlink="http://www.w3.org/1999/xlink" xml:space="preserve" xmlns:serif="http://www.serif.com/" style="fill-rule:evenodd;clip-rule:evenodd;stroke-linejoin:round;stroke-miterlimit:2;">
    <g transform="matrix(1,0,0,1,-5.32,-95.84)">
        <path d="M238.12,104.07C233.19,104.07 231.28,107.86 231.28,111.01C231.28,114.68 234.03,117.31 238.07,117.31C242.92,117.31 244.89,113.61 244.89,110.61C244.89,106.81 242.09,104.07 238.12,104.07ZM238.12,116.39C234.67,116.39 232.22,113.95 232.22,110.52C232.22,107.73 233.89,104.93 238.07,104.93C241.53,104.93 243.98,107.37 243.98,110.8C243.98,113.77 241.88,116.39 238.12,116.39Z" style="fill-rule:nonzero;"/>
        <path d="M236.84,108.56L233.61,108.56C233.32,108.56 233.08,108.81 233.08,109.1C233.08,109.4 233.32,109.64 233.61,109.64L234.71,109.64L234.71,114.13C234.71,114.45 234.97,114.71 235.29,114.71C235.61,114.71 235.87,114.45 235.87,114.13L235.87,109.64L236.84,109.64C237.14,109.64 237.38,109.4 237.38,109.1C237.38,108.81 237.14,108.56 236.84,108.56Z" style="fill-rule:nonzero;"/>
        <path d="M242.15,108.17C241.89,108.08 241.6,108.19 241.47,108.44L239.76,112.01L238.05,108.44C237.92,108.19 237.63,108.08 237.37,108.17C237.11,108.26 236.95,108.53 237,108.81L237.79,114.18C237.83,114.47 238.11,114.7 238.43,114.66C238.75,114.61 238.97,114.33 238.93,114.01L238.56,111.44L239.76,114.13L241.16,111.09L240.72,114.01C240.67,114.33 240.89,114.61 241.21,114.66C241.53,114.7 241.81,114.47 241.86,114.16L242.62,108.81C242.66,108.53 242.47,108.26 242.15,108.17Z" style="fill-rule:nonzero;"/>
        <path d="M11.07,96.11L6.47,96.24C5.76,96.26 5.32,96.63 5.32,97.26C5.32,97.86 5.71,98.28 6.33,98.28L7.77,98.21L6.92,103.93C6.8,104.75 7.22,105.12 7.81,105.12C8.39,105.12 8.8,104.75 8.89,103.93L9.6,98.18L11.07,98.11C11.78,98.09 12.22,97.72 12.22,97.09C12.22,96.49 11.75,96.09 11.07,96.11Z" style="fill-rule:nonzero;"/>
        <path d="M20.46,95.91L19.71,99.87L17.31,99.94L17.68,97.11C17.79,96.29 17.37,95.91 16.78,95.91C16.2,95.91 15.78,96.29 15.69,97.11L14.62,103.93C14.5,104.75 14.92,105.12 15.51,105.12C16.09,105.12 16.51,104.75 16.62,103.93L17.02,101.82L19.37,101.82L18.92,103.93C18.81,104.75 19.23,105.12 19.82,105.12C20.4,105.12 20.82,104.75 20.93,103.93L22.21,97.11C22.33,96.29 21.91,95.91 21.32,95.91C20.74,95.91 20.53,96.06 20.46,95.91Z" style="fill-rule:nonzero;"/>
        <path d="M30.26,97.39L30.19,98.51L30.73,98.46C31.44,98.39 31.88,98.78 31.88,99.38C31.88,99.98 31.46,100.38 30.73,100.36L29.78,100.31L29.41,102.61L30.12,102.54C30.83,102.47 31.27,102.66 31.27,103.28C31.27,103.88 30.85,104.28 30.12,104.26L26.96,104.33L26.38,103.73L26.82,96.51L27.41,95.84L30.34,95.84C31.05,95.84 31.49,96.21 31.49,96.84C31.49,97.44 31.02,97.76 30.26,97.39Z" style="fill-rule:nonzero;"/>
        <path d="M35.61,110.41L25.91,110.41C24.58,110.41 23.78,110.93 23.78,112.71L23.63,132.89C23.56,134.73 23.92,135.02 25.32,135.02L26.91,135.02C28.17,135.02 28.79,134.66 28.79,132.96L29.15,124.72L33.74,124.58C35.14,124.58 35.76,123.95 35.76,122.53C35.76,121.23 35.21,120.46 33.74,120.53L29.51,120.67L29.66,116.41L34.92,116.2C36.65,116.13 37.27,115.43 37.27,113.72C37.27,112.01 36.91,110.41 35.61,110.41Z" style="fill:rgb(0,113,77);fill-rule:nonzero;"/>
        <path d="M48.31,111.01L41.94,111.01C39.92,111.01 39.12,112.01 38.91,114.72L38.76,133.1C38.76,134.95 39.56,135.71 40.96,135.71C42.43,135.71 43.38,135.02 43.31,133.1L43.45,128.91L45.47,128.7L47.74,133.94C48.36,135.23 49.31,135.71 50.97,135.71C52.78,135.71 53.96,134.81 53.34,133.1L51.19,127.65C53.21,126.08 54.32,123.88 54.32,120.11C54.32,114.07 52.18,111.01 48.31,111.01ZM46.71,124.23C45.83,124.23 44.75,124.02 44.39,123.73L44.25,116.2C44.75,115.84 45.76,115.63 46.71,115.63C48.85,115.63 49.65,117.13 49.65,120.11C49.65,122.96 48.63,124.23 46.71,124.23Z" style="fill:rgb(0,113,77);fill-rule:nonzero;"/>
        <path d="M69.52,114.93C71.93,114.79 72.44,113.86 72.44,112.29C72.44,110.72 71.64,110.06 69.66,110.06L61.06,110.2C59.04,110.2 58.75,110.72 58.54,112.5L58.25,133.31C58.18,134.81 58.87,135.5 60.34,135.5L70.12,135.36C71.86,135.36 72.66,134.52 72.66,133.17C72.66,131.67 71.86,130.91 70.12,131.05L64.19,131.26L64.33,123.95L67.84,123.73C69.38,123.66 70.11,122.89 70.11,121.53C70.11,120.25 69.23,119.48 67.76,119.55L63.97,119.76L64.11,115.21L69.52,114.93Z" style="fill:rgb(0,113,77);fill-rule:nonzero;"/>
        <path d="M83.83,120.6C81.62,119.62 80.93,118.92 80.93,117.71C80.93,116.63 81.73,115.77 83.06,115.77C84.72,115.77 85.45,116.98 86.71,116.98C88.11,116.98 88.91,115.42 88.91,114.36C88.91,112.44 86.15,111.01 83.16,111.01C78.93,111.01 76.45,114.72 76.45,118.13C76.45,121.61 78.11,123.45 82.49,125.51C84.51,126.44 85.31,127.07 85.31,128.35C85.31,129.33 84.43,130.17 83.21,130.17C81.26,130.17 80.11,128.46 78.71,128.46C77.45,128.46 76.51,129.81 76.51,131.17C76.51,133.53 79.94,135.71 83.06,135.71C87.44,135.71 89.85,131.81 89.85,128.21C89.85,124.31 87.44,122.11 83.83,120.6Z" style="fill:rgb(0,113,77);fill-rule:nonzero;"/>
        <path d="M106.29,110.06C104.89,110.06 104.16,110.83 104.16,112.64L103.95,119.06L98.61,119.27L98.76,112.64C98.83,110.83 98.03,110.06 96.77,110.06C95.44,110.06 94.64,110.83 94.64,112.64L93.84,133.1C93.77,134.95 94.57,135.36 95.83,135.36L96.56,135.36C97.74,135.36 98.47,134.81 98.47,133.1L98.54,123.88L103.73,123.66L104.23,133.1C104.23,134.81 105.03,135.36 106.29,135.36L107.02,135.36C108.28,135.36 108.94,134.73 108.87,133.1L108.43,112.64C108.43,110.83 107.63,110.06 106.29,110.06Z" style="fill:rgb(0,113,77);fill-rule:nonzero;"/>
        <path d="M128.28,110.2L120.11,110.2C118.16,110.2 117.61,110.72 117.54,112.5L117.32,132.96C117.25,134.52 117.8,135.02 119.06,135.02L120.46,135.02C121.64,135.02 122.26,134.45 122.19,132.96L122.26,124.31L126.93,124.16C128.26,124.16 128.81,123.47 128.81,122.26C128.81,121.02 128.26,120.32 126.93,120.39L122.55,120.53L122.77,115.71L128.26,115.49C129.73,115.42 130.35,114.72 130.35,113.23C130.35,111.73 129.8,110.2 128.28,110.2Z" style="fill:rgb(0,113,77);fill-rule:nonzero;"/>
        <path d="M141.19,111.01L135.19,111.01C133.46,111.01 132.51,111.87 132.37,114.14L132.15,132.96C132.08,134.81 132.81,135.5 134.21,135.5L134.83,135.5C136.09,135.5 136.78,134.73 136.78,132.96L136.85,128.42L138.73,128.28L140.97,133.95C141.52,135.23 142.47,135.5 143.73,135.5L144.61,135.5C146.15,135.5 147.02,134.31 146.22,132.42L144.12,127.07C146.15,125.58 147.17,123.17 147.17,119.62C147.17,114.21 145.03,111.01 141.19,111.01ZM139.52,124.02C138.72,124.02 137.71,123.81 137.21,123.52L137.14,116.2C137.64,115.84 138.58,115.63 139.46,115.63C141.41,115.63 142.42,117.27 142.42,120.11C142.42,122.75 141.34,124.02 139.52,124.02Z" style="fill:rgb(0,113,77);fill-rule:nonzero;"/>
        <path d="M152.43,110.41C150.77,110.41 149.9,111.25 149.97,113.16L149.75,132.75C149.68,134.66 150.56,135.5 151.82,135.5C153.22,135.5 154.16,134.59 154.16,132.75L154.63,113.16C154.7,111.25 153.83,110.41 152.43,110.41Z" style="fill:rgb(0,113,77);fill-rule:nonzero;"/>
        <path d="M169.21,114.72C170.95,114.65 171.75,113.65 171.75,112.15C171.75,110.62 170.87,110.06 169.14,110.13L160.32,110.27C158.72,110.27 158.17,111.04 157.88,113.02C157.26,117.06 157.81,122.11 157.66,124.1L157.45,132.61C157.38,134.45 158.18,135.29 159.84,135.22L169.77,135.08C171.43,135.08 172.23,134.16 172.23,132.75C172.23,131.32 171.36,130.48 169.7,130.55L163.77,130.76L163.34,123.81L167.64,123.6C169.18,123.53 169.91,122.67 169.91,121.39C169.91,120.04 169.03,119.34 167.56,119.41L163.41,119.62L163.55,114.93L169.21,114.72Z" style="fill:rgb(0,113,77);fill-rule:nonzero;"/>
        <path d="M188.57,110.41C187.03,110.41 186.23,111.32 186.3,113.31L186.66,123.81L186.3,123.95L180.16,112.36C179.36,110.83 178.63,110.41 177.55,110.41C176.08,110.41 175.21,111.53 175.21,113.58L175.21,132.61C175.21,134.52 175.94,135.09 177.27,135.09C178.67,135.09 179.32,134.31 179.25,132.61L178.96,123.31L179.32,123.17L186.66,133.88C187.53,135.09 188.15,135.23 189.24,135.23C190.64,135.23 190.93,134.38 190.86,132.32L190.64,113.16C190.64,111.18 189.84,110.41 188.57,110.41Z" style="fill:rgb(0,113,77);fill-rule:nonzero;"/>
        <path d="M201.72,110.2L196.91,110.2L195.25,111.73L194.63,133.59L195.96,135.09L200.84,135.09C208.18,135.09 210.94,129.57 210.94,122.54C210.94,114.72 207.75,110.2 201.72,110.2ZM201.21,129.5L200.02,129.22L199.55,117.06L200.35,115.42L201.43,115.42C205.04,115.42 206.44,118.06 206.44,122.61C206.44,126.93 204.84,129.5 201.21,129.5Z" style="fill:rgb(0,113,77);fill-rule:nonzero;"/>
        <path d="M221.87,120.25C219.74,119.34 218.94,118.64 218.94,117.56C218.94,116.56 219.74,115.71 221.07,115.71C222.73,115.71 223.53,116.77 224.72,116.77C226.05,116.77 226.85,115.35 226.85,114.22C226.85,112.23 224.23,110.7 221.14,110.7C216.98,110.7 214.36,114.29 214.36,117.78C214.36,121.41 216.16,123.45 220.46,125.3C222.52,126.15 223.32,126.85 223.32,127.93C223.32,128.98 222.37,129.82 221.04,129.82C219.31,129.82 218.36,128.21 217.1,128.21C215.84,128.21 215.04,129.64 215.04,130.83C215.04,133.1 218.13,135.5 221.36,135.5C225.74,135.5 227.98,131.46 227.98,128.21C227.98,124.52 225.85,122.04 221.87,120.25Z" style="fill:rgb(0,113,77);fill-rule:nonzero;"/>
        <path d="M63.41,146.11L62.61,149.03L60.88,149.1L61.24,146.93C61.38,146.26 61.02,145.91 60.53,145.91C60.03,145.91 59.74,146.26 59.67,146.93L58.8,152.31C58.66,153.05 59.02,153.39 59.52,153.39C60.01,153.39 60.3,153.05 60.45,152.31L60.66,150.61L62.32,150.61L62.11,152.31C61.97,153.05 62.32,153.39 62.82,153.39C63.32,153.39 63.61,153.05 63.75,152.31L64.48,146.93C64.62,146.26 64.26,145.91 63.76,145.91C63.27,145.91 63.34,145.98 63.41,146.11Z" style="fill-opacity:0.4;fill-rule:nonzero;"/>
        <path d="M69.73,147.41L70.81,147.34C71.38,147.27 71.67,146.93 71.67,146.45C71.67,146 71.31,145.76 70.74,145.76L68.26,145.83L67.11,152.24L67.61,152.91L70.53,152.77C71.1,152.77 71.46,152.42 71.46,151.89C71.46,151.37 71.1,151.16 70.53,151.23L68.87,151.37L69.01,149.73L70.16,149.66C70.66,149.66 70.95,149.31 70.95,148.89C70.95,148.47 70.66,148.26 70.16,148.26L69.36,148.33L69.73,147.41Z" style="fill-opacity:0.4;fill-rule:nonzero;"/>
        <path d="M75.87,146.72L73.67,152.24C73.38,153.01 73.6,153.39 74.17,153.39C74.66,153.39 74.95,153.05 75.16,152.38L75.45,151.3L77.11,151.3L77.11,152.1C77.11,152.87 77.47,153.22 77.97,153.22C78.46,153.22 78.75,152.81 78.61,152.1L77.81,146.86C77.74,146.26 77.38,145.91 76.73,145.91C76.23,145.91 76.02,146.19 75.87,146.72Z" style="fill-opacity:0.4;fill-rule:nonzero;"/>
        <path d="M83.89,151.3L82.16,151.44L82.65,146.93C82.72,146.26 82.44,145.91 81.86,145.91C81.36,145.91 81.07,146.26 81,146.93L80.51,152.31L81.01,152.91L83.87,152.77C84.51,152.77 84.87,152.42 84.87,151.89C84.87,151.37 84.51,151.23 83.89,151.3Z" style="fill-opacity:0.4;fill-rule:nonzero;"/>
        <path d="M90.73,146.33L87.68,146.4C87.11,146.4 86.75,146.75 86.75,147.27C86.75,147.76 87.04,148.04 87.61,148.04L88.56,148.04L87.93,152.03C87.86,152.7 88.15,153.05 88.65,153.05C89.14,153.05 89.43,152.7 89.5,152.03L90.07,148.04L90.8,147.97C91.37,147.97 91.73,147.62 91.73,147.13C91.73,146.61 91.37,146.33 90.73,146.33Z" style="fill-opacity:0.4;fill-rule:nonzero;"/>
        <path d="M97.81,145.91C97.31,145.91 97.02,146.26 96.95,146.93L96.59,148.75L95.33,148.82L95.62,146.93C95.76,146.26 95.47,145.91 94.98,145.91C94.48,145.91 94.19,146.26 94.12,146.93L93.25,152.1C93.11,152.87 93.47,153.22 93.96,153.22C94.46,153.22 94.75,152.87 94.89,152.1L95.11,150.47L96.37,150.39L96.15,152.03C96.01,152.8 96.37,153.15 96.87,153.15C97.36,153.15 97.65,152.8 97.79,152.03L98.66,146.86C98.73,146.19 98.37,145.91 97.81,145.91Z" style="fill-opacity:0.4;fill-rule:nonzero;"/>
        <path d="M104.61,145.91C104.11,145.91 103.75,146.26 103.68,146.93L103.32,149.6L102.24,149.74L101.75,146.86C101.61,146.19 101.25,145.91 100.75,145.98C100.26,146.05 100.04,146.54 100.26,147.21L101.13,150.62C101.27,151.15 101.56,151.36 102.12,151.29L102.92,151.15C102.63,152.17 102.14,152.45 101.56,152.52C101.06,152.59 100.85,152.94 100.92,153.36C100.99,153.78 101.35,153.99 101.84,153.92C103.31,153.64 104.32,152.45 104.71,150.02L105.21,146.93C105.35,146.26 105.06,145.91 104.61,145.91Z" style="fill-opacity:0.4;fill-rule:nonzero;"/>
        <path d="M112.85,145.91C112.28,145.91 111.92,146.26 111.85,146.93L111.23,152.03C111.16,152.7 111.45,153.05 111.94,153.05C112.44,153.05 112.8,152.7 112.87,152.03L113.49,146.93C113.56,146.26 113.27,145.91 112.85,145.91Z" style="fill-opacity:0.4;fill-rule:nonzero;"/>
        <path d="M118.04,145.91L116.96,145.91L116.23,146.51L115.51,152.24L116.08,152.84L117.23,152.84C119.71,152.84 120.72,150.82 120.72,148.62C120.72,146.91 119.64,145.91 118.04,145.91ZM117.55,151.51L117.11,151.51L117.55,147.41L117.76,147.41C118.84,147.41 119.33,148.04 119.33,149.17C119.33,150.44 118.71,151.51 117.55,151.51Z" style="fill-opacity:0.4;fill-rule:nonzero;"/>
        <path d="M125.47,147.21L126.55,147.14C127.11,147.07 127.4,146.79 127.4,146.3C127.4,145.81 127.04,145.6 126.47,145.67L123.85,145.74L122.52,152.17L123.02,152.77L125.81,152.63C126.43,152.63 126.79,152.28 126.79,151.76C126.79,151.23 126.43,151.02 125.81,151.09L124.28,151.23L124.5,149.66L125.51,149.59C126.08,149.59 126.37,149.24 126.37,148.75C126.37,148.26 126.01,148.12 125.44,148.19L124.71,148.26L125.47,147.21Z" style="fill-opacity:0.4;fill-rule:nonzero;"/>
        <path d="M130.59,146.72L128.64,152.1C128.35,152.87 128.64,153.29 129.21,153.29C129.71,153.29 129.92,152.94 130.14,152.24L130.35,151.23L132.01,151.23L132.01,152.1C132.01,152.8 132.37,153.15 132.87,153.15C133.36,153.15 133.65,152.73 133.51,152.03L132.56,146.79C132.42,146.19 132.06,145.84 131.5,145.91C131.08,145.91 130.86,146.19 130.59,146.72Z" style="fill-opacity:0.4;fill-rule:nonzero;"/>
        <path d="M138.16,147.91C138.65,147.14 138.72,146.93 138.65,146.51C138.58,146.12 138.16,145.91 137.74,145.98C136.55,146.26 135.82,147.41 135.82,148.47C135.82,149.38 136.28,149.87 137.36,150.4C137.93,150.75 138.15,150.96 138.15,151.31C138.15,151.66 137.86,151.94 137.44,151.94C136.81,151.94 136.45,151.31 136.03,151.31C135.61,151.31 135.39,151.73 135.39,152.17C135.39,152.87 136.4,153.37 137.35,153.37C138.75,153.37 139.55,152.17 139.55,151.03C139.55,149.88 138.89,149.25 137.74,148.62L138.16,147.91Z" style="fill-opacity:0.4;fill-rule:nonzero;"/>
        <path d="M149.75,146.33L147.27,146.33L146.32,147.07L145.45,152.38C145.31,153.05 145.6,153.33 146.09,153.33C146.59,153.33 146.95,153.05 147.02,152.38L147.31,150.21L148.97,150.07C149.53,150 149.82,149.72 149.82,149.24C149.82,148.75 149.53,148.47 148.97,148.47L147.57,148.54L147.78,147.62L149.73,147.55C150.36,147.55 150.65,147.21 150.65,146.68C150.65,146.16 150.36,146.26 149.75,146.33Z" style="fill-opacity:0.4;fill-rule:nonzero;"/>
        <path d="M155.71,145.7C153.47,145.7 152.21,147.83 152.21,149.93C152.21,151.75 153.26,153.05 154.85,153.05C156.98,153.05 158.24,150.82 158.24,148.76C158.24,146.93 157.16,145.7 155.71,145.7ZM155.06,151.61C154.11,151.61 153.55,150.75 153.55,149.52C153.55,148.12 154.35,147.07 155.43,147.07C156.38,147.07 156.94,147.91 156.94,149.03C156.94,150.46 156.14,151.61 155.06,151.61Z" style="fill-opacity:0.4;fill-rule:nonzero;"/>
        <path d="M164.21,149.88C164.94,149.31 165.23,148.61 165.08,147.76C164.87,146.61 163.92,146.12 162.52,146.4L161.34,147.21L160.26,152.1C160.04,152.94 160.33,153.32 160.9,153.32C161.39,153.32 161.75,152.98 161.82,152.31L162.03,151.03L163.63,152.81C163.99,153.22 164.41,153.33 164.77,153.05C165.19,152.77 165.26,152.25 164.77,151.76L164.21,149.88ZM162.74,149.38L162.25,149.38L162.54,147.75L163.03,147.61C163.52,147.54 163.88,147.75 163.95,148.18C164.02,148.75 163.52,149.24 162.74,149.38Z" style="fill-opacity:0.4;fill-rule:nonzero;"/>
        <path d="M175.72,145.7L173.77,148.4L173.99,146.72C174.06,146.12 173.77,145.77 173.27,145.77C172.78,145.77 172.49,146.12 172.42,146.72L171.62,151.82C171.48,152.56 171.77,152.91 172.26,152.91C172.76,152.91 173.05,152.56 173.19,151.82L173.41,150.01L174.74,150.08L175.03,151.82C175.17,152.56 175.53,152.84 176.02,152.7C176.52,152.56 176.73,152.1 176.52,151.44L175.65,148.75L176.83,147.07C177.26,146.47 177.12,146.05 176.66,145.77C176.23,145.56 175.87,145.7 175.72,145.7Z" style="fill-opacity:0.4;fill-rule:nonzero;"/>
        <path d="M180.31,146.33C179.81,146.33 179.45,146.68 179.38,147.34L178.76,151.82C178.69,152.49 178.98,152.84 179.47,152.84C179.97,152.84 180.33,152.49 180.4,151.82L181.02,147.34C181.09,146.68 180.8,146.33 180.31,146.33Z" style="fill-opacity:0.4;fill-rule:nonzero;"/>
        <path d="M184.88,146.33L183.62,146.33L182.89,146.93L182.27,152.24L182.76,152.84L183.95,152.84C186.26,152.84 187.44,150.89 187.44,148.82C187.44,147.14 186.42,146.33 184.88,146.33ZM184.31,151.51L183.74,151.51L184.24,147.62L184.67,147.62C185.68,147.62 186.18,148.26 186.18,149.24C186.18,150.47 185.45,151.51 184.31,151.51Z" style="fill-opacity:0.4;fill-rule:nonzero;"/>
        <path d="M191.6,148.26L191.74,147.34C192.03,146.72 192.03,146.47 191.74,146.12C191.45,145.84 191.03,145.84 190.61,146.12C189.91,146.72 189.55,147.62 189.7,148.47C189.84,149.31 190.33,149.81 191.31,150.22C191.81,150.43 192.02,150.68 192.09,150.96C192.16,151.37 191.81,151.72 191.31,151.65C190.69,151.58 190.4,151.02 189.98,151.09C189.56,151.16 189.41,151.65 189.48,152.03C189.62,152.73 190.63,153.15 191.61,153.01C192.94,152.79 193.6,151.65 193.45,150.53C193.31,149.52 192.66,148.89 191.6,148.26Z" style="fill-opacity:0.4;fill-rule:nonzero;"/>
    </g>
</svg>
